Coordinates
version=1
nRows=30
nColumns=33
inDegrees=yes

Units are S.I. units (second, meters, Newtons, ...)
Angles are in degrees.

endheader
time	ground_thorax_rot_x	ground_thorax_rot_y	ground_thorax_rot_z	ground_thorax_tx	ground_thorax_ty	ground_thorax_tz	clav_prot_r	clav_elev_r	scapula_abduction_r	scapula_elevation_r	scapula_upward_rot_r	scapula_winging_r	shoulder_elv_r	plane_of_elev_r	axial_rot_r	elbow_flexion_r	pro_sup_r	wrist_flex_r	wrist_dev_r	clav_prot_l	clav_elev_l	scapula_abduction_l	scapula_elevation_l	scapula_upward_rot_l	scapula_winging_l	shoulder_elv_l	plane_of_elev_l	axial_rot_l	elbow_flexion_l	pro_sup_l	wrist_flex_l	wrist_dev_l	
6.9000	-40.984882	-8.517075	15.952529	-264.834476	836.940239	-4.752599	8.809306	-45.000000	39.337552	-45.000000	-45.000000	2420.712345	-1185.590852	147.025374	180.000000	1809.993163	73.186822	27.934889	7.924316	15.529327	37.758422	-36.435476	-45.000000	-45.031459	-3155.013168	-2806.569733	26.049538	-27.372052	1813.388511	50.102775	-1.104148	-17.227270	
6.9100	-40.974594	-8.606685	15.990920	-264.777242	836.737178	-4.703249	8.904168	-45.000000	39.363260	-45.000000	-45.000000	2420.687736	-1185.633686	147.039360	180.000000	1810.020386	73.129486	27.945437	7.895188	15.435488	37.749988	-36.366911	-45.000000	-45.020619	-3155.028937	-2806.549210	26.061067	-27.335145	1813.444976	50.174707	-1.075464	-17.170772	
6.9200	-40.956349	-8.726765	16.060163	-264.702092	836.533940	-4.655304	9.004644	-45.000000	39.379226	-45.000000	-45.000000	2420.661157	-1185.668987	147.045964	180.000000	1810.010122	73.078609	27.952089	7.834317	15.300992	37.862620	-36.243570	-45.000000	-44.980445	-3155.116506	-2806.450762	26.000968	-27.298960	1813.535085	50.234774	-0.986277	-17.093428	
6.9300	-40.944240	-8.810407	16.096079	-264.587557	836.330471	-4.610139	9.059974	-45.000000	39.397148	-45.000000	-45.000000	2420.655816	-1185.689661	147.052643	180.000000	1810.027627	73.048558	27.955739	7.804644	15.242853	37.895219	-36.189407	-45.000000	-44.973147	-3155.159369	-2806.420869	25.991688	-27.233085	1813.578405	50.280434	-0.955198	-17.050576	
6.9400	-40.934466	-8.883625	16.124397	-264.432489	836.127926	-4.568445	9.093955	-45.000000	39.413655	-45.000000	-45.000000	2420.661153	-1185.697231	147.057802	180.000000	1810.053886	73.034514	27.956252	7.785964	15.215735	37.902062	-36.163553	-45.000000	-44.973775	-3155.189312	-2806.416153	25.997634	-27.143837	1813.597774	50.305921	-0.942020	-17.020635	
6.9500	-40.928044	-8.948490	16.146887	-264.233059	835.927820	-4.531143	9.108477	-45.000000	39.428060	-45.000000	-45.000000	2420.675439	-1185.695494	147.059534	180.000000	1810.088565	73.032838	27.953768	7.771289	15.211161	37.919736	-36.153705	-45.000000	-44.974626	-3155.224508	-2806.412495	25.999768	-27.040756	1813.607909	50.306899	-0.935867	-17.004940	
6.9600	-40.927092	-9.010502	16.164977	-263.991050	835.732834	-4.499120	9.116630	-45.000000	39.440408	-45.000000	-45.000000	2420.694223	-1185.687998	147.056381	180.000000	1810.135102	73.038106	27.950736	7.763162	15.217213	37.914087	-36.158671	-45.000000	-44.976918	-3155.243789	-2806.423055	26.016251	-26.923292	1813.605794	50.281012	-0.937923	-16.995692	
6.9700	-40.925785	-9.081645	16.192974	-263.710359	835.546025	-4.473173	9.124047	-45.000000	39.453306	-45.000000	-45.000000	2420.712073	-1185.676516	147.051687	180.000000	1810.188619	73.042657	27.945647	7.748875	15.216912	37.945256	-36.159512	-45.000000	-44.973883	-3155.282754	-2806.413995	26.008981	-26.801008	1813.608158	50.228260	-0.928552	-16.989023	
6.9800	-40.929208	-9.149382	16.214682	-263.393676	835.370759	-4.454163	9.133775	-45.000000	39.467528	-45.000000	-45.000000	2420.730412	-1185.663291	147.039324	180.000000	1810.257837	73.043922	27.942686	7.741365	15.218454	37.937033	-36.172270	-45.000000	-44.976658	-3155.298115	-2806.423502	26.026498	-26.666241	1813.598964	50.150011	-0.926242	-16.984439	
6.9900	-40.934941	-9.227013	16.241799	-263.042598	835.210102	-4.442832	9.141143	-45.000000	39.489452	-45.000000	-45.000000	2420.752068	-1185.652574	147.028692	180.000000	1810.335657	73.039089	27.936709	7.730882	15.216833	37.965025	-36.177004	-45.000000	-44.978231	-3155.327054	-2806.404882	26.018152	-26.527524	1813.609376	50.046865	-0.920126	-16.989696	
7.0000	-40.946358	-9.298177	16.258800	-262.656584	835.066533	-4.439792	9.154128	-45.000000	39.513215	-45.000000	-45.000000	2420.775273	-1185.643349	147.004287	180.000000	1810.418996	73.029935	27.933756	7.727515	15.209907	37.950120	-36.185106	-45.000000	-44.983812	-3155.330090	-2806.395157	26.040275	-26.374595	1813.617724	49.919615	-0.918408	-16.996374	
7.0100	-40.955936	-9.374163	16.282096	-262.233813	834.941719	-4.445339	9.169644	-45.000000	39.544231	-45.000000	-45.000000	2420.799308	-1185.632531	146.978992	180.000000	1810.505012	73.015388	27.926295	7.724211	15.198596	37.958871	-36.183152	-45.000000	-44.986096	-3155.348139	-2806.360993	26.049921	-26.214962	1813.632405	49.769114	-0.912846	-17.012013	
7.0200	-40.966311	-9.438374	16.295116	-261.770437	834.836158	-4.459388	9.195696	-45.000000	39.575083	-45.000000	-45.000000	2420.820673	-1185.619371	146.935856	180.000000	1810.595126	72.996048	27.921557	7.727074	15.177697	37.923095	-36.178807	-45.000000	-44.985466	-3155.351006	-2806.336203	26.097094	-26.042806	1813.631018	49.594989	-0.906279	-17.028297	
7.0300	-40.973074	-9.509797	16.316575	-261.262287	834.749612	-4.481426	9.226687	-45.000000	39.612746	-45.000000	-45.000000	2420.841851	-1185.605291	146.894320	180.000000	1810.691046	72.969992	27.910578	7.729140	15.149045	37.917372	-36.162934	-45.000000	-44.974869	-3155.375097	-2806.285420	26.125025	-25.867740	1813.633099	49.395594	-0.894130	-17.057150	
7.0400	-40.975644	-9.574913	16.335110	-260.704075	834.680714	-4.510530	9.267212	-45.000000	39.650381	-45.000000	-45.000000	2420.858744	-1185.586588	146.838868	180.000000	1810.794516	72.937144	27.901101	7.735125	15.109388	37.878832	-36.150478	-45.000000	-44.959672	-3155.391637	-2806.248718	26.177792	-25.683434	1813.615769	49.169183	-0.878104	-17.088077	
7.0500	-40.969753	-9.643628	16.364610	-260.091222	834.627647	-4.545505	9.308727	-45.000000	39.687186	-45.000000	-45.000000	2420.874673	-1185.557408	146.785176	180.000000	1810.908957	72.895247	27.884510	7.739142	15.065700	37.869393	-36.149711	-45.000000	-44.934795	-3155.426703	-2806.210321	26.205343	-25.498107	1813.597432	48.910799	-0.855125	-17.132368	
7.0600	-40.959544	-9.708817	16.393793	-259.419064	834.587903	-4.585055	9.353569	-45.000000	39.723044	-45.000000	-45.000000	2420.888761	-1185.521741	146.722073	180.000000	1811.034954	72.844346	27.867434	7.745008	15.014952	37.848192	-36.163043	-45.000000	-44.893756	-3155.457610	-2806.189804	26.232538	-25.310154	1813.576054	48.615754	-0.827699	-17.185169	
7.0700	-40.947120	-9.783458	16.431022	-258.684199	834.558909	-4.628003	9.394084	-45.000000	39.762872	-45.000000	-45.000000	2420.909184	-1185.483523	146.663566	180.000000	1811.171120	72.784018	27.844568	7.750498	14.963005	37.858173	-36.184215	-45.000000	-44.826685	-3155.494583	-2806.167339	26.228716	-25.128630	1813.569774	48.278644	-0.795285	-17.254370	
7.0800	-40.934746	-9.852477	16.464843	-257.883703	834.537938	-4.673476	9.429451	-45.000000	39.795935	-45.000000	-45.000000	2420.934319	-1185.437250	146.596684	180.000000	1811.312564	72.715344	27.820883	7.759342	14.916603	37.865335	-36.217225	-45.000000	-44.738095	-3155.518224	-2806.160984	26.233361	-24.956966	1813.566015	47.893284	-0.757515	-17.332890	
7.0900	-40.923870	-9.921475	16.496894	-257.015570	834.522295	-4.720976	9.453377	-45.000000	39.822935	-45.000000	-45.000000	2420.970127	-1185.384956	146.526807	180.000000	1811.459121	72.637827	27.794664	7.770875	14.879842	37.889117	-36.254298	-45.000000	-44.621673	-3155.537804	-2806.159878	26.235964	-24.798193	1813.563077	47.452491	-0.711281	-17.423891	
7.1000	-40.918963	-9.980617	16.523995	-256.078223	834.509275	-4.770376	9.462356	-45.000000	39.828780	-45.000000	-45.000000	2421.017567	-1185.324426	146.449309	180.000000	1811.605273	72.552040	27.765920	7.786878	14.868519	37.918520	-36.308268	-45.000000	-44.497564	-3155.535280	-2806.171670	26.264520	-24.654915	1813.550700	46.943365	-0.655105	-17.522892	
7.1100	-40.920433	-10.038440	16.550933	-255.070539	834.496061	-4.821807	9.455570	-45.000000	39.818578	-45.000000	-45.000000	2421.080004	-1185.259429	146.368523	180.000000	1811.750550	72.457254	27.733837	7.807221	14.881413	37.958962	-36.374373	-45.000000	-44.364773	-3155.512381	-2806.192783	26.315307	-24.521435	1813.521510	46.352599	-0.585833	-17.629781	
7.1200	-40.928325	-10.087130	16.575472	-253.991353	834.479511	-4.875498	9.436876	-45.000000	39.785924	-45.000000	-45.000000	2421.153720	-1185.186008	146.280427	180.000000	1811.893731	72.353161	27.698073	7.832515	14.921403	38.005036	-36.462694	-45.000000	-44.237904	-3155.465186	-2806.227623	26.396963	-24.398756	1813.476305	45.665522	-0.501527	-17.744798	
7.1300	-40.937697	-10.144532	16.604448	-252.839827	834.456082	-4.931647	9.415591	-45.000000	39.756010	-45.000000	-45.000000	2421.235138	-1185.113042	146.190996	180.000000	1812.042268	72.238135	27.661561	7.862448	14.965378	38.055082	-36.555011	-45.000000	-44.098344	-3155.414957	-2806.269430	26.480691	-24.276211	1813.416063	44.875488	-0.400423	-17.869126	
7.1400	-40.948460	-10.207989	16.637859	-251.614550	834.421496	-4.990255	9.396945	-45.000000	39.729341	-45.000000	-45.000000	2421.320404	-1185.040643	146.100783	180.000000	1812.196726	72.111942	27.623879	7.897592	15.013615	38.108901	-36.655545	-45.000000	-43.951643	-3155.363538	-2806.317296	26.564811	-24.156518	1813.343660	43.976955	-0.281519	-18.002662	
7.1500	-40.955043	-10.295380	16.682108	-250.313394	834.370654	-5.051044	9.388140	-45.000000	39.728818	-45.000000	-45.000000	2421.407024	-1184.975059	146.015581	180.000000	1812.362746	71.973209	27.587729	7.937969	15.046909	38.163602	-36.739366	-45.000000	-43.780183	-3155.328552	-2806.362649	26.630158	-24.034218	1813.261292	42.973381	-0.143971	-18.144653	
7.1600	-40.957997	-10.397647	16.733973	-248.932194	834.297343	-5.113353	9.387350	-45.000000	39.745684	-45.000000	-45.000000	2421.494038	-1184.912701	145.932834	180.000000	1812.538047	71.821267	27.553357	7.984099	15.069512	38.219705	-36.817005	-45.000000	-43.592353	-3155.308650	-2806.408006	26.679133	-23.915276	1813.174543	41.866910	0.012947	-18.295039	
7.1700	-40.955412	-10.523174	16.800848	-247.465156	834.194611	-5.176223	9.388795	-45.000000	39.787557	-45.000000	-45.000000	2421.582581	-1184.857865	145.857743	180.000000	1812.721493	71.654525	27.522316	8.036710	15.082292	38.278109	-36.881458	-45.000000	-43.383721	-3155.308950	-2806.450341	26.704555	-23.799111	1813.081970	40.660038	0.189930	-18.451432	
7.1800	-40.950470	-10.661213	16.883391	-245.904506	834.054942	-5.238427	9.381226	-45.000000	39.832319	-45.000000	-45.000000	2421.676272	-1184.806225	145.787935	180.000000	1812.904425	71.471766	27.492547	8.096184	15.107363	38.343096	-36.954677	-45.000000	-43.174358	-3155.311892	-2806.499518	26.723537	-23.694903	1812.981100	39.346670	0.388630	-18.611317	
7.1900	-40.940900	-10.813242	16.986342	-244.242130	833.871133	-5.298650	9.361846	-45.000000	39.875888	-45.000000	-45.000000	2421.774209	-1184.757481	145.721510	180.000000	1813.080651	71.271166	27.463604	8.163388	15.146620	38.414122	-37.034835	-45.000000	-42.966660	-3155.317681	-2806.556622	26.737994	-23.606403	1812.872561	37.921212	0.611441	-18.773829	
